HIERARCHY
ROOT hip
{
	OFFSET 0.000000 0.000000 0.000000 
	CHANNELS 6 Xposition Yposition Zposition Xrotation Zrotation Yrotation
	JOINT abdomen
	{
		OFFSET 0.000000 3.402643 0.000000 
		CHANNELS 3 Xrotation Zrotation Yrotation
		JOINT chest
		{
			OFFSET 0.000000 8.438565 -0.680529 
			CHANNELS 3 Xrotation Zrotation Yrotation
			JOINT neck
			{
				OFFSET 0.000000 10.207942 -0.272212 
				CHANNELS 3 Xrotation Zrotation Yrotation
				JOINT head
				{
					OFFSET 0.000000 3.130431 0.000000 
					CHANNELS 3 Xrotation Zrotation Yrotation
					End Site
					{
						OFFSET 0.000000 3.130435 0.000000 
					}
				}
			}
			JOINT lCollar
			{
				OFFSET 3.470700 6.669187 -0.816635 
				CHANNELS 3 Yrotation Zrotation Xrotation
				JOINT lShldr
				{
					OFFSET 3.198488 0.000000 0.000000 
					CHANNELS 3 Zrotation Yrotation Xrotation
					JOINT lForeArm
					{
						OFFSET 10.139888 0.000000 0.000000 
						CHANNELS 3 Yrotation Zrotation Xrotation
						JOINT lHand
						{
							OFFSET 8.370511 0.000000 0.000000 
							CHANNELS 3 Zrotation Yrotation Xrotation
							End Site
							{
								OFFSET 4.083176 0.000000 0.000000 
							}
						}
					}
				}
			}
			JOINT rCollar
			{
				OFFSET -3.470700 6.669187 -0.816635 
				CHANNELS 3 Yrotation Zrotation Xrotation
				JOINT rShldr
				{
					OFFSET -3.198488 0.000000 0.000000 
					CHANNELS 3 Zrotation Yrotation Xrotation
					JOINT rForeArm
					{
						OFFSET -10.139888 0.000000 0.000000 
						CHANNELS 3 Yrotation Zrotation Xrotation
						JOINT rHand
						{
							OFFSET -8.370511 0.000000 0.000000 
							CHANNELS 3 Zrotation Yrotation Xrotation
							End Site
							{
								OFFSET -4.083176 0.000000 0.000000 
							}
						}
					}
				}
			}
		}
	}
	JOINT lThigh
	{
		OFFSET 5.308129 -1.633274 1.361059 
		CHANNELS 3 Xrotation Zrotation Yrotation
		JOINT lShin
		{
			OFFSET -2.041588 -20.007561 0.000000 
			CHANNELS 3 Xrotation Zrotation Yrotation
			JOINT lFoot
			{
				OFFSET 0.000000 -19.190928 -1.224953 
				CHANNELS 3 Xrotation Yrotation Zrotation
				End Site
				{
					OFFSET 0.000000 -2.449906 4.627600 
				}
			}
		}
	}
	JOINT rThigh
	{
		OFFSET -5.308129 -1.633274 1.361059 
		CHANNELS 3 Xrotation Zrotation Yrotation
		JOINT rShin
		{
			OFFSET 2.041588 -20.007561 0.000000 
			CHANNELS 3 Xrotation Zrotation Yrotation
			JOINT rFoot
			{
				OFFSET 0.000000 -19.190928 -1.224953 
				CHANNELS 3 Xrotation Yrotation Zrotation
				End Site
				{
					OFFSET 0.000000 -2.449906 4.627600 
				}
			}
		}
	}
}
MOTION
Frames: 11
Frame Time: 0.016667
-16.755920 42.484180 214.443375 -4.278990 -1.587360 -89.744598 -26.913099 2.309530 -2.520980 10.628700 1.991240 -0.924414 21.318899 6.555270 -2.823620 14.454900 6.827510 -0.978466 2.000000 -2.000000 0.000000 133.602005 -131.300003 -3.605700 31.318701 -0.331644 0.071124 0.050298 0.032499 -121.648003 -2.000000 2.000000 0.000000 32.234001 46.822300 165.162003 -31.240601 0.331741 0.070909 -0.055044 -0.004626 -131.774994 -18.635756 -3.406501 -9.932732 32.569572 2.587122 2.425264 -27.795918 18.211308 12.193077 -2.537865 7.257422 20.473883 23.692780 -3.852356 -1.559835 -19.925705 -34.122253 -7.556218 
-17.187523 42.501801 214.427643 -4.181400 -1.636260 -89.821800 -26.624399 2.221120 -2.872420 11.234300 2.033360 -1.095220 20.852501 6.651800 -2.598280 14.279300 6.889350 -0.862056 2.000000 -2.000000 0.000000 134.041000 -131.229004 -4.630930 31.152700 -0.331849 0.070785 0.050671 0.033843 -121.150002 -2.000000 2.000000 0.000000 32.784500 48.114101 163.960999 -30.517900 0.332626 0.069429 -0.055548 -0.009413 -130.057007 -19.353811 -3.827183 -12.632071 31.021360 2.558320 2.366097 -29.253105 17.810162 12.578954 -1.960691 7.112134 18.621872 23.299109 -3.889064 -1.519492 -18.217110 -33.596268 -6.472748 
-17.596098 42.547329 214.424286 -4.112970 -1.616920 -90.665001 -26.626200 2.237570 -2.717770 11.235100 1.888810 -1.012930 20.845600 6.630280 -2.665310 14.307400 6.831000 -0.878697 2.000000 -2.000000 0.000000 134.686996 -131.600006 -4.524390 31.416401 -0.331523 0.071323 0.050183 0.032077 -121.805000 -2.000000 2.000000 0.000000 32.003201 47.710300 165.473999 -30.976900 0.332066 0.070370 -0.054930 -0.003291 -132.253998 -20.032030 -4.076733 -14.504880 29.559748 2.535953 2.288209 -29.382921 17.578739 12.499043 -1.605989 6.923146 17.455744 22.932112 -3.887954 -1.501813 -16.227842 -32.823708 -5.169649 
-18.019613 42.607250 214.427643 -3.956960 -1.763370 -91.333199 -26.611000 2.351750 -2.523990 11.176900 1.811410 -0.904485 20.886600 6.730540 -2.724320 14.347400 6.858900 -0.907899 2.000000 -2.000000 0.000000 134.462997 -131.582001 -3.967700 31.445700 -0.331486 0.071383 0.049874 0.030914 -122.234001 -2.000000 2.000000 0.000000 31.218901 46.692799 166.255005 -31.748400 0.331108 0.071942 -0.054664 0.000528 -133.621002 -20.463730 -4.294466 -16.339350 27.985014 2.463855 2.220936 -28.975069 18.542992 12.960162 -0.834306 7.147313 18.294594 22.569471 -3.917318 -1.479635 -16.844238 -32.969746 -5.529000 
-18.437737 42.612137 214.429886 -3.781190 -1.812460 -91.940804 -26.621300 2.365220 -2.488290 11.148000 1.734180 -0.882886 20.843800 6.565060 -2.852000 14.315200 6.744300 -0.962643 2.000000 -2.000000 0.000000 134.110992 -131.610992 -4.290040 31.230801 -0.331753 0.070945 0.050219 0.032209 -121.755997 -2.000000 2.000000 0.000000 31.952700 47.251202 165.475006 -31.025700 0.332006 0.070470 -0.054952 -0.003564 -132.156006 -21.009640 -4.566586 -18.753046 26.632887 2.424155 2.158608 -28.507740 20.136618 13.671760 -0.143608 7.339465 18.021601 22.249538 -3.982764 -1.453543 -16.177856 -32.280102 -5.097933 
-18.856646 42.654709 214.422028 -3.498200 -1.988480 -92.720299 -27.441299 3.034250 -2.567770 9.233240 2.911060 -0.924194 21.865801 5.571140 -3.098510 14.670900 6.399810 -1.090410 2.000000 -2.000000 0.000000 132.162003 -132.766006 -3.157400 31.279600 -0.331692 0.071044 0.050363 0.032737 -121.559998 -2.000000 2.000000 0.000000 32.303001 46.534599 167.113998 -30.918301 0.332137 0.070250 -0.055020 -0.004354 -131.873001 -21.361652 -4.667181 -21.172447 25.655119 2.373666 2.117119 -27.786257 22.287476 14.555830 0.717867 7.244637 17.358965 21.444286 -4.027345 -1.385729 -14.695137 -31.195906 -3.971377 
-19.268028 42.749615 214.434402 -3.166180 -2.096410 -93.399803 -26.566700 2.482260 -2.315250 10.992900 1.473380 -0.775478 21.006500 6.471580 -2.853270 14.392700 6.694430 -0.952430 2.000000 -2.000000 0.000000 134.709000 -132.274994 -4.015650 31.553101 -0.331352 0.071601 0.049553 0.029670 -122.693001 -2.000000 2.000000 0.000000 32.745098 47.760201 164.996002 -29.922199 0.333341 0.068200 -0.055574 -0.009630 -129.977997 -21.829365 -4.751354 -23.385235 24.938950 2.353559 2.067547 -30.118631 20.553104 14.697773 1.276320 7.188694 15.668217 20.867271 -4.121194 -1.334970 -11.934146 -30.024006 -2.224332 
-19.683455 42.765949 214.455734 -2.697170 -2.126550 -94.099098 -26.502600 2.611410 -2.082390 11.091600 1.213720 -0.631972 20.486900 6.679810 -2.903010 14.158300 6.767160 -0.987351 2.000000 -2.000000 0.000000 134.572006 -132.139008 -3.702840 31.523800 -0.331389 0.071542 0.049627 0.029961 -122.585999 -2.000000 2.000000 0.000000 33.076000 47.556099 164.548004 -29.795200 0.333492 0.067938 -0.055947 -0.012477 -128.953003 -22.299366 -4.691231 -25.347466 24.059113 2.307734 2.036049 -30.327757 22.218302 15.819253 1.905739 7.486899 15.641522 20.496428 -4.223264 -1.293945 -11.298451 -29.813435 -1.750670 
-20.095062 42.767353 214.470337 -2.326110 -2.312550 -94.867104 -26.528799 2.861410 -2.024200 10.846700 1.405360 -0.582174 21.085199 5.866770 -3.152600 14.396100 6.415640 -1.099620 2.000000 -2.000000 0.000000 134.005997 -132.246994 -3.742140 31.230801 -0.331753 0.070945 0.050048 0.031575 -121.989998 -2.000000 2.000000 0.000000 32.002102 47.279099 166.087997 -30.117500 0.333108 0.068604 -0.055255 -0.006804 -130.994003 -22.606323 -4.805055 -27.713144 23.542374 2.271099 2.029121 -32.481251 22.702925 17.316677 2.740686 7.685285 15.649082 19.957380 -4.444698 -1.232339 -9.989044 -29.520809 -0.848692 
-20.510263 42.828835 214.496170 -2.081770 -2.312930 -95.423798 -26.539900 2.933610 -2.191090 10.806800 1.588070 -0.653594 21.009399 6.079020 -2.705850 14.351600 6.618490 -0.902536 2.000000 -2.000000 0.000000 133.919998 -132.587006 -4.485120 30.996401 -0.332042 0.070466 0.050465 0.033106 -121.424004 -2.000000 2.000000 0.000000 31.435699 46.874401 167.951996 -31.123400 0.331885 0.070669 -0.054835 -0.002064 -132.692993 -23.022779 -5.005970 -29.806860 23.124670 2.227930 2.029051 -34.827553 22.023336 18.184944 3.400695 7.396674 13.534423 19.212866 -4.657578 -1.147268 -9.431769 -27.036444 -0.037686 
-20.925240 42.844521 214.523132 -1.798340 -2.313310 -96.333702 -26.511900 2.946400 -1.880760 10.817700 1.308990 -0.498023 21.120701 6.077040 -2.885220 14.398700 6.530910 -0.971228 2.000000 -2.000000 0.000000 133.968002 -132.460007 -4.435990 30.898800 -0.332162 0.070266 0.050472 0.033132 -121.414001 -2.000000 2.000000 0.000000 31.493299 46.709599 167.427002 -30.889000 0.332173 0.070190 -0.054971 -0.003782 -132.078003 -23.369167 -5.089749 -31.412287 22.736223 2.182273 2.018820 -36.590664 22.556578 19.656254 4.231938 7.594834 14.530501 18.585253 -4.941002 -1.099480 -9.301272 -27.365252 0.263145 
